<svg width="1001" height="289" viewBox="0 0 1001 289" fill="none" xmlns="http://www.w3.org/2000/svg">
<g clip-path="url(#clip0)">
<path fill-rule="evenodd" clip-rule="evenodd" d="M208.133 212.214L233.538 96.7399H324.239L317.942 124.879H261.05L257.683 139.575H313.531L307.233 167.714H251.386L247.822 184.087H304.923L298.841 212.22H208.127L208.133 212.214ZM425.748 212.214L441.077 142.303L397.406 212.22H381.862L369.053 142.303L353.515 212.22H319.933L345.338 96.7399H389.426L400.976 159.727L439.818 96.7399H484.539L459.134 212.22L425.748 212.214ZM562.842 139.993C568.933 139.993 572.498 135.373 572.498 130.961C572.498 126.974 569.142 124.246 564.526 124.246H536.178L532.614 139.993H562.842ZM555.076 184.72C560.955 184.72 565.571 180.518 565.571 175.056C565.571 170.651 562.215 167.29 557.177 167.29H526.304L522.741 184.714H555.07L555.076 184.72ZM483.052 212.214L508.457 96.7337H572.074C594.537 96.7337 608.396 107.652 608.396 123.398C608.396 137.259 598.323 151.955 582.362 153.847C593.283 157.626 599.159 166.86 599.159 176.309C599.159 196.258 584.255 212.214 558.64 212.214H483.052ZM680.413 130.132L658.577 167.29H685.447L680.413 130.132ZM707.707 96.7399L728.074 212.22H691.119L688.599 196.264H642.831L633.594 212.22H595.588L666.978 96.7399H707.707ZM812.255 146.29C820.447 146.29 825.695 140.626 825.695 134.113C825.695 129.284 822.334 125.715 815.407 125.715H790.424L786.012 146.296L812.255 146.29ZM805.746 212.214L794.407 175.265H779.503L771.317 212.22H737.718L763.13 96.7399H818.345C845.436 96.7399 860.548 111.228 860.548 130.759C860.548 151.961 846.481 168.543 827.373 172.746L843.125 212.22H805.752L805.746 212.214ZM932.656 212.214L910.831 170.018L902.006 178.208L894.452 212.22H860.854L886.26 96.7399H919.854L910.198 140.417L954.492 96.7399H995.226L936.441 150.702L972.554 212.22H932.667L932.656 212.214Z" fill="#006BD4"/>
<path fill-rule="evenodd" clip-rule="evenodd" d="M49.4181 230.627C46.1372 245.55 53.9154 259.405 62.5047 269.53C67.8216 275.739 73.8702 281.282 80.5183 286.038L116.411 122.637C119.692 107.707 111.913 93.8588 103.324 83.7339C98.0092 77.5209 91.9606 71.9758 85.3104 67.2193L49.4181 230.627Z" fill="#006BD4"/>
<path d="M108.264 241.317L137.429 108.549L154.342 31.5601C154.342 31.5601 191.998 57.1248 185.437 86.9779L178.709 117.617L166.458 173.391L159.725 204.03C153.169 233.884 108.264 241.317 108.264 241.317Z" fill="#3B9CFF"/>
<path d="M14.834 203.225C6.2387 193.107 -1.53326 179.252 1.74141 164.323L37.64 0.926819C44.2864 5.68556 50.3328 11.2308 55.6476 17.4415C64.2366 27.5666 72.0151 41.4148 68.7338 56.3444L32.8416 219.74C26.1937 214.983 20.1471 209.438 14.834 203.225Z" fill="#3B9CFF"/>
</g>
<defs>
<clipPath id="clip0">
<rect width="1000" height="288.136" fill="white" transform="translate(0.458496)"/>
</clipPath>
</defs>
</svg>