<svg data-name="Layer 1" xmlns="http://www.w3.org/2000/svg" viewBox="0 0 265.49 54.74" class="css-19wfund e1arzhzf0"><defs><linearGradient id="logo_svg__a" x1="47.57" y1="53.51" x2="313.06" y2="53.51" gradientUnits="userSpaceOnUse"><stop offset="0" stop-color="#e41e2d"></stop><stop offset="0.18" stop-color="#e01f32"></stop><stop offset="0.39" stop-color="#d32242"></stop><stop offset="0.64" stop-color="#be285b"></stop><stop offset="0.89" stop-color="#a22f7e"></stop><stop offset="1" stop-color="#94338f"></stop></linearGradient></defs><path d="M68.78 45l-1-5.37a1.09 1.09 0 01.63-1A31.79 31.79 0 0178 37.37c8.22 0 13 4.33 13 12.64V67.2c0 .69-1.55 1.32-4.61 1.89a42.12 42.12 0 01-7.81.89c-3.63 0-6.09-.38-8.62-1.68s-4-4-4-8 1-6.63 3-8.12S73.71 50 77.15 50h5v-.4c0-3.64-1.77-4.9-5.81-4.9a27.26 27.26 0 00-6.6.82 1 1 0 01-.96-.52zm13.87 11.58h-2.72c-3.69 0-5.56 1-5.59 3.13 0 2.56 1.17 3.35 4.08 3.35s4.23-.51 4.23-1.55zm18.87 1.11c0 3.31 1.93 5 5.81 5a16.6 16.6 0 003.76-.57l.73-.22V39.05a1.13 1.13 0 011.18-1.14h6a1.16 1.16 0 011.17 1.14v27.83c0 .7-1.74 1.39-5.18 2.06a45.16 45.16 0 01-8.47 1c-4.36 0-7.68-1.17-9.92-3.54s-3.41-6.64-3.41-12.89V39.05a1.14 1.14 0 011.17-1.14h6a1.16 1.16 0 011.17 1.14zm40.1-8c0-3.32-2-5-5.84-5a16.33 16.33 0 00-3.73.57l-.73.19V68.3a1.17 1.17 0 01-1.17 1.17h-6A1.15 1.15 0 01123 68.3V40.47c0-.7 1.74-1.39 5.18-2.09a47.36 47.36 0 018.47-1q6.54 0 10 3.51c2.24 2.37 3.38 6.66 3.38 12.92V68.3a1.18 1.18 0 01-1.17 1.17h-6a1.18 1.18 0 01-1.17-1.17zm32.64-10.93a.86.86 0 01.6.85l-1 5.25a.87.87 0 01-.86.57 24.18 24.18 0 00-5.56-.7c-3.06 0-5.09.73-6.1 2.15a9.8 9.8 0 00-1.51 5.72v2.21a9.51 9.51 0 001.23 5.31c.95 1.64 3.13 2.59 6.38 2.59A25.45 25.45 0 00173 62a.91.91 0 01.86.6l1 5.25a.78.78 0 01-.6.82 27.31 27.31 0 01-8.91 1.33 13 13 0 01-10.07-4.14 15 15 0 01-3.8-10.55v-3.25a15 15 0 013.8-10.55 13 13 0 0110.07-4.14 27.06 27.06 0 018.91 1.36zm10.47 1.67c1.74-2 4.36-3 7.9-3a10.49 10.49 0 017.83 2.94c1.93 2 2.91 4.9 2.91 8.72V68.3a1.18 1.18 0 01-1.17 1.17h-6a1.15 1.15 0 01-1.2-1.17V49.35a5.1 5.1 0 00-1.2-3.1 4.55 4.55 0 00-3.8-1.55 7.52 7.52 0 00-5.24 2.18V68.3a1.17 1.17 0 01-1.17 1.17h-6a1.15 1.15 0 01-1.17-1.17V29.88a1.19 1.19 0 011.17-1.17h6a1.19 1.19 0 011.17 1.17zm22.5 15v-3.5q0-6.73 3.57-10.59t9.83-3.85a32.05 32.05 0 017.45.72.66.66 0 01.45.64l-.38 2.52c-.05.3-.29.46-.73.48a30 30 0 00-5.37-.6q-10.87 0-10.87 11.91v1q0 11.91 10.87 11.91a26.73 26.73 0 005.37-.6c.42 0 .66.15.73.45l.38 2.52a.71.71 0 01-.45.67 31 31 0 01-7.45.69q-6.3 0-9.85-3.84t-3.55-10.52zm44.64 11.13a14.33 14.33 0 01-18.27 0q-3.42-3.3-3.43-10.73v-4.27q0-7.45 3.43-10.76a14.29 14.29 0 0118.27 0q3.42 3.3 3.42 10.76v4.26q0 7.46-3.42 10.75zm-15.31-2.82a9.23 9.23 0 0012.35 0 8.33 8.33 0 002.43-6.25v-7.64a8.29 8.29 0 00-2.43-6.24 9.26 9.26 0 00-12.35 0 8.26 8.26 0 00-2.44 6.22v7.67a8.3 8.3 0 002.44 6.25zm48-34.28V68c0 .21-.67.46-2 .74s-3.06.54-5.17.77a53.21 53.21 0 01-6 .35q-12.74 0-12.74-16.68a23.2 23.2 0 011.14-7.73 10.82 10.82 0 013.15-4.86 12.63 12.63 0 014.06-2.38 14.46 14.46 0 014.66-.71 30.17 30.17 0 018.91 1.7v-9.73a.67.67 0 01.79-.76h2.4c.51-.02.77.29.77.76zM280.58 65V42.74a33.65 33.65 0 00-8.22-1.48 11.81 11.81 0 00-5.23 1 6.4 6.4 0 00-3 2.9 13.56 13.56 0 00-1.28 3.84 27.87 27.87 0 00-.32 4.53c0 1.48 0 2.68.1 3.61a15.86 15.86 0 00.65 3.3 7.44 7.44 0 001.54 3 8.31 8.31 0 002.91 1.91 11.69 11.69 0 004.63.82 28.49 28.49 0 003.62-.27c1.38-.17 2.5-.35 3.36-.52zm28.41.57c.48 0 .74.18.79.53l.38 2.37a.75.75 0 01-.51.73 42 42 0 01-7.9.63q-14.25 0-14.25-14.28v-4.91a15.9 15.9 0 01.24-2.65 15 15 0 011.07-3.37 13.5 13.5 0 012.19-3.46 10.3 10.3 0 013.71-2.59 13.79 13.79 0 015.61-1.07 14.18 14.18 0 016 1.17 10.43 10.43 0 013.81 2.71 12.28 12.28 0 012 3.68 16.36 16.36 0 01.87 3.51c.08.92.12 1.85.12 2.8v3.73c0 .52-.25.79-.75.79h-20.8v1.54a13.61 13.61 0 001 4.76 5.19 5.19 0 002.62 2.62 12.44 12.44 0 003.81 1.08 51.86 51.86 0 005.51.23c.67-.02 2.18-.2 4.49-.53zm-17.54-13.44h17.66a16.22 16.22 0 00-1-6 6.39 6.39 0 00-2.59-3.32 12.24 12.24 0 00-2.75-1.23 9.33 9.33 0 00-2.42-.3q-8.9-.02-8.9 10.85zM55.72 79.71l-8.15-52.33a1.48 1.48 0 011.36-1.23h7.58q.85 0 1.05 1.23l8.11 52.33a1.28 1.28 0 01-1.42 1.17h-7.52c-.55 0-.89-.39-1.01-1.17z" transform="translate(-47.57 -26.15)" fill="url(#logo_svg__a)"></path></svg>