<?xml version="1.0" encoding="UTF-8"?><svg id="Layer_1" xmlns="http://www.w3.org/2000/svg" viewBox="0 0 144 54"><defs><style>.cls-1{fill:#020202;}.cls-2{fill:#231f20;}</style></defs><rect class="cls-2" x="57.78" y="13.39" width=".4" height="27.44"/><g><path class="cls-2" d="M69.28,29.94l-2.24-5.74h.61l1.04,2.77c.37,.99,.59,1.6,.67,1.81,.08,.21,.14,.38,.18,.51h0c.04-.12,.1-.29,.17-.49s.3-.81,.67-1.82l1.04-2.78h.58l-2.24,5.74h-.5Z"/><path class="cls-2" d="M72.25,28.87c0-.22,.05-.42,.15-.58,.1-.16,.26-.3,.48-.41,.22-.11,.49-.19,.83-.24,.34-.05,.75-.08,1.22-.08v-.33c0-.31-.08-.54-.25-.71-.17-.16-.41-.24-.73-.24-.26,0-.5,.06-.71,.18-.21,.12-.39,.31-.56,.56l-.38-.29c.2-.29,.44-.51,.72-.66,.28-.15,.59-.23,.94-.23,.48,0,.84,.12,1.09,.35s.37,.57,.37,1.01v.76c0,.33,0,.62,0,.87,0,.25,0,.62,.02,1.11h-.5l-.02-.61h0c-.15,.22-.35,.4-.58,.53-.24,.13-.49,.19-.76,.19-.4,0-.73-.11-.98-.32s-.37-.5-.37-.86Zm1.67-.84c-.27,.03-.49,.09-.66,.16-.17,.07-.29,.16-.36,.27-.08,.11-.11,.25-.11,.41,0,.24,.08,.43,.24,.56,.16,.13,.38,.19,.67,.19,.24,0,.45-.06,.63-.17s.34-.28,.44-.48,.16-.43,.16-.66v-.31c-.4,0-.74,.02-1.01,.05Z"/><path class="cls-2" d="M76.83,23.95h.5v5.99h-.5v-5.99Z"/><path class="cls-2" d="M80.37,30.05c-.38,0-.71-.08-1-.25-.28-.17-.5-.41-.66-.73s-.23-.69-.23-1.11,.07-.79,.22-1.11c.15-.32,.36-.57,.64-.74s.6-.26,.97-.26c.35,0,.65,.08,.9,.23,.26,.15,.46,.37,.6,.66,.15,.28,.22,.58,.22,.88,0,.17-.01,.31-.03,.42h-2.99c0,.31,.06,.59,.18,.83,.12,.24,.28,.42,.49,.55,.21,.13,.44,.19,.7,.19,.29,0,.54-.06,.74-.17,.2-.11,.39-.29,.54-.55l.4,.27c-.21,.31-.45,.54-.72,.68-.27,.14-.6,.21-.98,.21Zm1.13-2.44c0-.25-.05-.47-.15-.68-.1-.2-.24-.36-.42-.48-.18-.11-.39-.17-.63-.17s-.43,.05-.61,.16c-.18,.1-.32,.26-.43,.45-.11,.2-.18,.44-.21,.72h2.46Z"/><path class="cls-2" d="M85.93,29.94v-2.31c0-.24-.01-.42-.03-.54-.02-.12-.06-.23-.11-.34-.08-.16-.19-.28-.34-.36-.15-.08-.33-.12-.54-.12-.16,0-.31,.03-.45,.08-.14,.06-.26,.13-.35,.22-.15,.15-.26,.34-.33,.56s-.1,.52-.1,.9v1.9h-.5v-2.66c0-.19,0-.36,0-.52,0-.15,0-.3,0-.43,0-.13,0-.27-.01-.4h.5l.02,.61h0c.13-.23,.31-.41,.53-.53,.23-.12,.49-.18,.78-.18,.48,0,.84,.13,1.09,.4,.25,.27,.37,.66,.37,1.19v2.52h-.5Z"/><path class="cls-2" d="M87.18,26.36v-.42h.87v-1.43l.5-.15v1.58h1.24v.42h-1.24v2.03c0,.29,0,.5,.01,.63s.02,.22,.05,.29c.02,.06,.06,.12,.11,.17,.04,.05,.1,.08,.16,.1,.06,.02,.14,.03,.23,.03,.12,0,.25-.01,.37-.04,.13-.03,.23-.06,.31-.11v.45c-.08,.04-.2,.07-.33,.1-.14,.03-.27,.04-.41,.04-.24,0-.43-.04-.58-.13s-.25-.22-.32-.4c-.07-.18-.1-.41-.1-.69v-2.46h-.87Z"/><path class="cls-2" d="M90.71,24.21h.52v.99h-.52v-.99Zm0,5.74v-4h.5v4h-.5Z"/><path class="cls-2" d="M95.43,29.94v-2.31c0-.24-.01-.42-.03-.54-.02-.12-.06-.23-.11-.34-.08-.16-.19-.28-.34-.36-.15-.08-.33-.12-.54-.12-.16,0-.31,.03-.45,.08-.14,.06-.26,.13-.35,.22-.15,.15-.26,.34-.33,.56s-.1,.52-.1,.9v1.9h-.5v-2.66c0-.19,0-.36,0-.52,0-.15,0-.3,0-.43,0-.13,0-.27-.01-.4h.5l.02,.61h0c.13-.23,.31-.41,.53-.53,.23-.12,.49-.18,.78-.18,.48,0,.84,.13,1.09,.4,.25,.27,.37,.66,.37,1.19v2.52h-.5Z"/><path class="cls-2" d="M98.92,30.05c-.38,0-.71-.08-1-.25-.28-.17-.5-.41-.66-.73s-.23-.69-.23-1.11,.07-.79,.22-1.11c.15-.32,.36-.57,.64-.74s.6-.26,.97-.26c.35,0,.65,.08,.9,.23,.26,.15,.46,.37,.6,.66,.15,.28,.22,.58,.22,.88,0,.17-.01,.31-.03,.42h-2.99c0,.31,.06,.59,.18,.83,.12,.24,.28,.42,.49,.55,.21,.13,.44,.19,.7,.19,.29,0,.54-.06,.74-.17,.2-.11,.39-.29,.54-.55l.4,.27c-.21,.31-.45,.54-.72,.68-.27,.14-.6,.21-.98,.21Zm1.13-2.44c0-.25-.05-.47-.15-.68-.1-.2-.24-.36-.42-.48-.18-.11-.39-.17-.63-.17s-.43,.05-.61,.16c-.18,.1-.32,.26-.43,.45-.11,.2-.18,.44-.21,.72h2.46Z"/><path class="cls-2" d="M105.53,29.94l-2.24-5.74h.61l1.04,2.77c.37,.99,.59,1.6,.67,1.81,.08,.21,.14,.38,.18,.51h0c.04-.12,.1-.29,.17-.49s.3-.81,.67-1.82l1.04-2.78h.58l-2.24,5.74h-.5Z"/><path class="cls-2" d="M112.23,27.93c0,.42-.08,.78-.24,1.11-.16,.32-.38,.57-.66,.74-.29,.17-.62,.26-1.01,.26s-.73-.09-1.01-.26c-.28-.17-.5-.42-.65-.74s-.23-.69-.23-1.1,.08-.78,.24-1.11c.16-.32,.38-.57,.66-.74s.62-.26,1.01-.26,.73,.09,1.01,.26c.28,.17,.5,.42,.65,.74,.15,.32,.23,.69,.23,1.1Zm-.54,0c0-.32-.06-.61-.17-.86-.11-.26-.27-.45-.48-.59-.21-.14-.45-.21-.72-.21s-.52,.07-.72,.21c-.21,.14-.37,.34-.48,.59-.11,.26-.16,.54-.16,.86s.06,.61,.17,.86c.11,.26,.27,.45,.48,.59,.21,.14,.45,.21,.72,.21s.52-.07,.72-.21c.21-.14,.37-.34,.48-.59,.11-.26,.16-.54,.16-.86Z"/><path class="cls-2" d="M113.38,23.95h.5v5.99h-.5v-5.99Z"/><path class="cls-2" d="M116.41,29.94l-1.67-4h.59l.7,1.71c.09,.22,.19,.48,.31,.79,.11,.31,.22,.61,.32,.91h0c.06-.2,.16-.47,.28-.81,.13-.34,.24-.64,.34-.89l.7-1.71h.55l-1.67,4h-.45Z"/><path class="cls-2" d="M122.8,27.93c0,.42-.08,.78-.24,1.11-.16,.32-.38,.57-.66,.74-.29,.17-.62,.26-1.01,.26s-.73-.09-1.01-.26c-.28-.17-.5-.42-.65-.74s-.23-.69-.23-1.1,.08-.78,.24-1.11c.16-.32,.38-.57,.66-.74s.62-.26,1.01-.26,.73,.09,1.01,.26c.28,.17,.5,.42,.65,.74,.15,.32,.23,.69,.23,1.1Zm-.54,0c0-.32-.06-.61-.17-.86-.11-.26-.27-.45-.48-.59-.21-.14-.45-.21-.72-.21s-.52,.07-.72,.21c-.21,.14-.37,.34-.48,.59-.11,.26-.16,.54-.16,.86s.06,.61,.17,.86c.11,.26,.27,.45,.48,.59,.21,.14,.45,.21,.72,.21s.52-.07,.72-.21c.21-.14,.37-.34,.48-.59,.11-.26,.16-.54,.16-.86Z"/></g><g><path class="cls-1" d="M33.96,28.06h3.41v-1.14h-.38c0,.44-.32,.76-.81,.76h-.52v-1.7h.57v-.38h-2.27v.38h.57v1.7h-.57v.38Z"/><polygon class="cls-1" points="39.03 28.06 40.35 28.06 41.47 25.98 42.04 25.98 42.04 25.6 40.35 25.6 40.35 25.98 40.84 25.98 40.01 27.51 39.19 25.98 39.77 25.98 39.77 25.6 37.31 25.6 37.31 25.98 37.87 25.98 39.03 28.06"/><polygon class="cls-1" points="27.15 25.6 24.67 25.6 24.67 25.98 25.24 25.98 26.39 28.06 27.72 28.06 28.85 25.98 29.42 25.98 29.42 25.6 27.72 25.6 27.72 25.98 28.21 25.98 27.39 27.51 26.55 25.98 27.15 25.98 27.15 25.6"/><path class="cls-1" d="M29.75,26.84c0,.73,.59,1.3,1.76,1.3s1.75-.57,1.75-1.3-.62-1.29-1.76-1.29-1.75,.57-1.75,1.29m2.35,0c-.02,.44-.19,.92-.62,.91-.41-.02-.6-.48-.59-.92,.02-.48,.24-.89,.62-.89,.4,.02,.6,.43,.59,.91"/><path class="cls-1" d="M42.38,26.84c0,.73,.59,1.3,1.76,1.3s1.75-.57,1.75-1.3-.62-1.29-1.76-1.29-1.75,.57-1.75,1.29m1.76-.91c.4,0,.6,.43,.59,.91-.02,.44-.19,.92-.62,.91-.41-.02-.6-.48-.59-.92,0-.48,.24-.89,.62-.89"/><path class="cls-1" d="M46.87,19l-1.43,1.43c1.22,1.89,1.94,4.14,1.94,6.57,0,6.69-5.41,12.1-12.1,12.1s-12.1-5.41-12.1-12.1,5.41-12.1,12.1-12.1c2.43,0,4.68,.71,6.59,1.95l1.43-1.43c-2.27-1.57-5.03-2.51-8.02-2.51-7.78,0-14.08,6.3-14.08,14.08s6.3,14.08,14.08,14.08,14.08-6.3,14.08-14.08c0-2.97-.92-5.73-2.49-8"/><path class="cls-1" d="M42.36,13.47v.4c.86,.46,1.65,1.02,2.4,1.62l-2,2c.76,.59,1.45,1.27,2.03,2.03l2-2c.62,.75,1.16,1.56,1.62,2.4h.38v-6.45h-6.43Z"/></g></svg>